<svg xmlns="http://www.w3.org/2000/svg" viewBox="0 0 600 760"><rect width="600" height="760" fill="#dff7f2"/><rect x="34" y="34" width="532" height="692" rx="22" fill="#fff" stroke="#146b63" stroke-width="4"/><text x="300" y="105" text-anchor="middle" font-family="Arial" font-weight="700" font-size="24" fill="#146b63">VISIOND COLORING</text><path d="M137 445c40-115 122-147 219-119 46 13 74-7 92-52 30 16 50 46 45 83-4 32-27 51-64 56l-45 6c-8 55-1 104 21 149h-62l-40-91-42 16-2 75h-61l-3-108c-25 3-47-2-58-15z" fill="none" stroke="#183c39" stroke-width="9" stroke-linejoin="round"/><circle cx="443" cy="337" r="5" fill="#183c39"/><path d="M176 431l-69 4 51-37M270 339l-14-62 43 51M374 341l33-51-3 67" fill="none" stroke="#183c39" stroke-width="8" stroke-linecap="round"/><text x="300" y="650" text-anchor="middle" font-family="Arial" font-weight="800" font-size="32" fill="#183c39">DINOSAUR</text><text x="300" y="692" text-anchor="middle" font-family="Arial" font-size="22" fill="#146b63">50 COLORING PAGES • A4 PDF</text></svg>
