<svg xmlns="http://www.w3.org/2000/svg" viewBox="0 0 600 760"><rect width="600" height="760" fill="#eee9fa"/><rect x="34" y="34" width="532" height="692" rx="22" fill="#fff" stroke="#7159a3" stroke-width="4"/><text x="300" y="105" text-anchor="middle" font-family="Arial" font-weight="700" font-size="24" fill="#7159a3">VISIOND COLORING</text><g transform="translate(300 395)" fill="none" stroke="#372d50" stroke-width="5"><circle r="154"/><circle r="112"/><circle r="68"/><path d="M0-154C-40-109-40-66 0 0c40-66 40-109 0-154z"/><path d="M0-154C-40-109-40-66 0 0c40-66 40-109 0-154z" transform="rotate(45)"/><path d="M0-154C-40-109-40-66 0 0c40-66 40-109 0-154z" transform="rotate(90)"/><path d="M0-154C-40-109-40-66 0 0c40-66 40-109 0-154z" transform="rotate(135)"/><path d="M0-154C-40-109-40-66 0 0c40-66 40-109 0-154z" transform="rotate(180)"/><path d="M0-154C-40-109-40-66 0 0c40-66 40-109 0-154z" transform="rotate(225)"/><path d="M0-154C-40-109-40-66 0 0c40-66 40-109 0-154z" transform="rotate(270)"/><path d="M0-154C-40-109-40-66 0 0c40-66 40-109 0-154z" transform="rotate(315)"/></g><text x="300" y="650" text-anchor="middle" font-family="Arial" font-weight="800" font-size="32" fill="#372d50">MANDALA</text><text x="300" y="692" text-anchor="middle" font-family="Arial" font-size="22" fill="#7159a3">60 COLORING PAGES • A4 PDF</text></svg>
